<?xml version="1.0" encoding="UTF-8"?>
<svg xmlns="http://www.w3.org/2000/svg" xmlns:xlink="http://www.w3.org/1999/xlink" width="85px" height="50px" viewBox="0 0 85 50" version="1.1">
<g id="surface1">
<path style=" stroke:none;fill-rule:nonzero;fill:rgb(14.509804%,18.431373%,24.313725%);fill-opacity:1;" d="M 24.230469 18.160156 C 24.230469 19.1875 24.339844 20.023438 24.535156 20.632812 C 24.757812 21.246094 25.035156 21.914062 25.421875 22.636719 C 25.558594 22.859375 25.613281 23.082031 25.613281 23.277344 C 25.613281 23.554688 25.449219 23.832031 25.089844 24.109375 L 23.34375 25.277344 C 23.09375 25.445312 22.84375 25.527344 22.625 25.527344 C 22.347656 25.527344 22.070312 25.390625 21.792969 25.140625 C 21.402344 24.722656 21.070312 24.277344 20.792969 23.832031 C 20.519531 23.359375 20.242188 22.832031 19.9375 22.191406 C 17.773438 24.75 15.058594 26.027344 11.792969 26.027344 C 9.464844 26.027344 7.609375 25.363281 6.25 24.027344 C 4.894531 22.691406 4.199219 20.914062 4.199219 18.6875 C 4.199219 16.324219 5.03125 14.40625 6.722656 12.957031 C 8.410156 11.511719 10.65625 10.789062 13.507812 10.789062 C 14.449219 10.789062 15.421875 10.875 16.445312 11.011719 C 17.46875 11.152344 18.523438 11.375 19.632812 11.625 L 19.632812 9.59375 C 19.632812 7.480469 19.1875 6.007812 18.328125 5.144531 C 17.441406 4.28125 15.945312 3.867188 13.8125 3.867188 C 12.84375 3.867188 11.847656 3.976562 10.820312 4.226562 C 9.796875 4.476562 8.800781 4.78125 7.828125 5.171875 C 7.386719 5.367188 7.054688 5.476562 6.859375 5.535156 C 6.667969 5.589844 6.527344 5.617188 6.417969 5.617188 C 6.027344 5.617188 5.835938 5.339844 5.835938 4.753906 L 5.835938 3.394531 C 5.835938 2.949219 5.890625 2.613281 6.027344 2.417969 C 6.167969 2.226562 6.417969 2.03125 6.804688 1.835938 C 7.773438 1.335938 8.9375 0.917969 10.296875 0.582031 C 11.652344 0.222656 13.09375 0.0546875 14.617188 0.0546875 C 17.914062 0.0546875 20.324219 0.804688 21.875 2.308594 C 23.398438 3.808594 24.175781 6.089844 24.175781 9.148438 L 24.175781 18.160156 Z M 12.984375 22.386719 C 13.898438 22.386719 14.839844 22.21875 15.835938 21.886719 C 16.832031 21.550781 17.71875 20.941406 18.46875 20.105469 C 18.910156 19.578125 19.242188 18.992188 19.410156 18.324219 C 19.574219 17.660156 19.6875 16.851562 19.6875 15.90625 L 19.6875 14.738281 C 18.882812 14.542969 18.023438 14.378906 17.136719 14.265625 C 16.25 14.15625 15.394531 14.097656 14.535156 14.097656 C 12.675781 14.097656 11.320312 14.460938 10.40625 15.210938 C 9.492188 15.960938 9.046875 17.019531 9.046875 18.410156 C 9.046875 19.714844 9.382812 20.691406 10.074219 21.355469 C 10.738281 22.050781 11.707031 22.386719 12.984375 22.386719 Z M 35.226562 25.390625 C 34.730469 25.390625 34.398438 25.304688 34.175781 25.109375 C 33.953125 24.945312 33.757812 24.554688 33.59375 24.027344 L 27.082031 2.53125 C 26.917969 1.972656 26.832031 1.613281 26.832031 1.417969 C 26.832031 0.972656 27.054688 0.722656 27.5 0.722656 L 30.214844 0.722656 C 30.738281 0.722656 31.101562 0.804688 31.292969 1 C 31.515625 1.167969 31.683594 1.558594 31.847656 2.085938 L 36.503906 20.496094 L 40.824219 2.085938 C 40.960938 1.53125 41.128906 1.167969 41.351562 1 C 41.570312 0.835938 41.960938 0.722656 42.457031 0.722656 L 44.675781 0.722656 C 45.199219 0.722656 45.5625 0.804688 45.78125 1 C 46.003906 1.167969 46.199219 1.558594 46.308594 2.085938 L 50.6875 20.71875 L 55.480469 2.085938 C 55.644531 1.53125 55.839844 1.167969 56.03125 1 C 56.253906 0.835938 56.613281 0.722656 57.113281 0.722656 L 59.691406 0.722656 C 60.132812 0.722656 60.382812 0.945312 60.382812 1.417969 C 60.382812 1.558594 60.355469 1.695312 60.328125 1.863281 C 60.300781 2.03125 60.242188 2.253906 60.132812 2.558594 L 53.457031 24.054688 C 53.289062 24.609375 53.097656 24.972656 52.875 25.140625 C 52.652344 25.304688 52.292969 25.417969 51.820312 25.417969 L 49.441406 25.417969 C 48.914062 25.417969 48.554688 25.332031 48.332031 25.140625 C 48.109375 24.945312 47.914062 24.582031 47.804688 24.027344 L 43.511719 6.089844 L 39.246094 24 C 39.105469 24.554688 38.941406 24.917969 38.71875 25.109375 C 38.496094 25.304688 38.109375 25.390625 37.609375 25.390625 Z M 70.828125 26.140625 C 69.386719 26.140625 67.945312 25.972656 66.558594 25.640625 C 65.175781 25.304688 64.09375 24.945312 63.375 24.527344 C 62.929688 24.277344 62.625 24 62.515625 23.75 C 62.40625 23.5 62.347656 23.21875 62.347656 22.96875 L 62.347656 21.550781 C 62.347656 20.96875 62.570312 20.691406 62.988281 20.691406 C 63.152344 20.691406 63.320312 20.71875 63.484375 20.773438 C 63.652344 20.828125 63.902344 20.941406 64.175781 21.050781 C 65.121094 21.46875 66.144531 21.800781 67.226562 22.023438 C 68.332031 22.246094 69.414062 22.359375 70.523438 22.359375 C 72.265625 22.359375 73.625 22.050781 74.566406 21.441406 C 75.507812 20.828125 76.007812 19.9375 76.007812 18.796875 C 76.007812 18.019531 75.757812 17.378906 75.257812 16.851562 C 74.761719 16.324219 73.816406 15.851562 72.460938 15.40625 L 68.445312 14.15625 C 66.421875 13.515625 64.925781 12.570312 64.011719 11.316406 C 63.097656 10.09375 62.625 8.730469 62.625 7.285156 C 62.625 6.117188 62.875 5.089844 63.375 4.199219 C 63.871094 3.308594 64.539062 2.53125 65.367188 1.917969 C 66.199219 1.277344 67.140625 0.804688 68.25 0.472656 C 69.359375 0.140625 70.523438 0 71.742188 0 C 72.351562 0 72.988281 0.0273438 73.597656 0.109375 C 74.234375 0.195312 74.816406 0.304688 75.398438 0.417969 C 75.953125 0.554688 76.476562 0.695312 76.976562 0.863281 C 77.476562 1.027344 77.863281 1.195312 78.140625 1.363281 C 78.527344 1.585938 78.804688 1.808594 78.972656 2.058594 C 79.136719 2.28125 79.21875 2.585938 79.21875 2.976562 L 79.21875 4.28125 C 79.21875 4.867188 79 5.171875 78.582031 5.171875 C 78.363281 5.171875 78 5.0625 77.53125 4.839844 C 75.953125 4.117188 74.179688 3.753906 72.210938 3.753906 C 70.632812 3.753906 69.386719 4.003906 68.527344 4.53125 C 67.667969 5.0625 67.226562 5.867188 67.226562 7.007812 C 67.226562 7.785156 67.503906 8.453125 68.054688 8.980469 C 68.609375 9.511719 69.636719 10.039062 71.101562 10.511719 L 75.039062 11.761719 C 77.03125 12.402344 78.472656 13.292969 79.332031 14.433594 C 80.191406 15.574219 80.605469 16.878906 80.605469 18.324219 C 80.605469 19.523438 80.355469 20.605469 79.886719 21.550781 C 79.386719 22.496094 78.722656 23.332031 77.863281 24 C 77.003906 24.695312 75.980469 25.195312 74.789062 25.554688 C 73.542969 25.945312 72.238281 26.140625 70.828125 26.140625 Z M 70.828125 26.140625 "/>
<path style=" stroke:none;fill-rule:evenodd;fill:rgb(100%,60%,0%);fill-opacity:1;" d="M 76.0625 39.65625 C 66.949219 46.414062 53.707031 50 42.320312 50 C 26.363281 50 11.984375 44.078125 1.125 34.234375 C 0.265625 33.453125 1.042969 32.398438 2.066406 33.007812 C 13.8125 39.851562 28.300781 43.992188 43.289062 43.992188 C 53.402344 43.992188 64.511719 41.878906 74.734375 37.542969 C 76.257812 36.847656 77.558594 38.542969 76.0625 39.65625 Z M 76.0625 39.65625 "/>
<path style=" stroke:none;fill-rule:evenodd;fill:rgb(100%,60%,0%);fill-opacity:1;" d="M 79.859375 35.316406 C 78.695312 33.816406 72.15625 34.59375 69.191406 34.957031 C 68.304688 35.066406 68.167969 34.289062 68.96875 33.703125 C 74.179688 30.035156 82.738281 31.089844 83.734375 32.3125 C 84.734375 33.566406 83.457031 42.15625 78.582031 46.273438 C 77.835938 46.914062 77.113281 46.578125 77.449219 45.746094 C 78.554688 42.992188 81.019531 36.789062 79.859375 35.316406 Z M 79.859375 35.316406 "/>
</g>
</svg>
